<svg xmlns="http://www.w3.org/2000/svg" width="25" height="25" viewBox="0 0 25 25">
  <g id="facebook-color-logo" transform="translate(0 0)">
    <g id="Layer_1" data-name="Layer 1" transform="translate(0 0)">
      <path id="Trazado_141" data-name="Trazado 141" d="M25.239,15.455A10.955,10.955,0,1,1,14.285,4.5,10.955,10.955,0,0,1,25.239,15.455Z" transform="translate(-1.897 -2.563)" fill="#fff" fill-rule="evenodd"/>
      <path id="Trazado_142" data-name="Trazado 142" d="M25,12.586A12.5,12.5,0,1,1,12.581,0,12.5,12.5,0,0,1,25,12.586Zm-14.929.574-.057,7.763h3.8l.034-7.717h1.895a5.057,5.057,0,0,0,.27-3.2,11.236,11.236,0,0,0-2.142-.178v-2l2.153-.362V4.639S10.1,3.491,10.066,7.631V9.612l-1.5.316v2.9Z" transform="translate(-0.001 0)" fill="#4267b2"/>
    </g>
  </g>
</svg>
