<svg id="Capa_2" data-name="Capa 2" xmlns="http://www.w3.org/2000/svg" width="43.596" height="43.577" viewBox="0 0 43.596 43.577">
  <g id="Layer_1" data-name="Layer 1" transform="translate(0.006 0.011)">
    <path id="Path_63" data-name="Path 63" d="M41.57,21.78A19.76,19.76,0,1,1,35.79,7.795,19.77,19.77,0,0,1,41.57,21.78Z" fill="#d8aef4" fill-rule="evenodd"/>
    <path id="Path_64" data-name="Path 64" d="M21.58,0A21.34,21.34,0,0,1,41.75,12.65a22.71,22.71,0,0,1-4.11,24.28,21.13,21.13,0,0,1-15.26,6.63,22,22,0,0,1-15.65-6A21.25,21.25,0,0,1,0,22.38,22,22,0,0,1,6.13,6.63,21.25,21.25,0,0,1,21.58,0Zm9.33,27.1a13.34,13.34,0,0,0,3.82-10.94c-.45-5.84-5.56-9.9-12.25-9.84-7,.07-13,4.44-13.44,10.84-.2,2.79.47,5.23,2.1,6.73.48.44,1.76,1.27,2.31,1.1s1-1.88.9-2.41a2.168,2.168,0,0,0-.7-1,5.51,5.51,0,0,1-.9-2.41c-.64-5.57,3.79-9.32,8.53-9.63a9.6,9.6,0,0,1,5.82,1.2c3.19,2,3.57,7,2.11,10.94-.79,2.08-2.94,5.9-6.53,4.52-2.63-1-1.47-4.08-.8-6.23.37-1.18,1.1-2.75.8-4.41A2.69,2.69,0,0,0,19,13.75c-2.42.88-3.18,4.84-1.91,7.53C16,26.67,13.42,31.83,14.55,38.44c1-.26,1.39-1.33,1.91-2.11a27,27,0,0,0,3.32-9C22.17,31.13,28.46,29.34,30.91,27.1Z" fill="#a652c6" fill-rule="evenodd"/>
  </g>
</svg>
