<svg xmlns="http://www.w3.org/2000/svg" width="25" height="24.989" viewBox="0 0 25 24.989">
  <g id="pinterest-color-logo" transform="translate(0.006 0.011)">
    <g id="Layer_1" data-name="Layer 1" transform="translate(-0.006 -0.011)">
      <path id="Trazado_145" data-name="Trazado 145" d="M25.289,13.634a11.623,11.623,0,1,1-3.4-8.226A11.629,11.629,0,0,1,25.289,13.634Z" transform="translate(-1.156 -1.137)" fill="#fff" fill-rule="evenodd"/>
      <path id="Trazado_146" data-name="Trazado 146" d="M12.372,0A12.237,12.237,0,0,1,23.939,7.249a13.023,13.023,0,0,1-2.357,13.923,12.117,12.117,0,0,1-8.751,3.8,12.616,12.616,0,0,1-8.974-3.441A12.186,12.186,0,0,1,0,12.829,12.616,12.616,0,0,1,3.513,3.8,12.186,12.186,0,0,1,12.372,0Zm5.35,15.54a7.65,7.65,0,0,0,2.191-6.273c-.258-3.349-3.188-5.677-7.025-5.643-4.014.04-7.455,2.546-7.707,6.216a4.666,4.666,0,0,0,1.2,3.859c.275.252,1.009.728,1.325.631s.573-1.078.516-1.382a1.243,1.243,0,0,0-.4-.573,3.16,3.16,0,0,1-.516-1.382A5.016,5.016,0,0,1,12.2,5.466a5.505,5.505,0,0,1,3.337.688c1.829,1.147,2.047,4.014,1.21,6.273C16.295,13.62,15.062,15.811,13,15.02c-1.508-.573-.843-2.34-.459-3.573A5.217,5.217,0,0,0,13,8.918a1.543,1.543,0,0,0-2.11-1.038c-1.388.5-1.824,2.775-1.1,4.318-.625,3.091-2.1,6.05-1.457,9.84.573-.149.8-.763,1.1-1.21a15.483,15.483,0,0,0,1.9-5.161C12.711,17.847,16.318,16.82,17.723,15.536Z" transform="translate(0.006 0.011)" fill="#c8232c" fill-rule="evenodd"/>
    </g>
  </g>
</svg>
