<svg id="telegram-color-hilarte" xmlns="http://www.w3.org/2000/svg" width="128" height="128" viewBox="0 0 128 128">
  <circle id="Ellipse_1" data-name="Ellipse 1" cx="64" cy="64" r="64" fill="#a652c6"/>
  <path id="Path_7" data-name="Path 7" d="M28.97,63.324Q56.956,51.131,66.293,47.248c17.773-7.393,21.467-8.677,23.874-8.72a4.213,4.213,0,0,1,2.48.744,2.7,2.7,0,0,1,.911,1.733,11.29,11.29,0,0,1,.107,2.52C92.7,53.645,88.534,78.2,86.414,89.538c-.9,4.8-2.664,6.4-4.374,6.562-3.717.342-6.539-2.456-10.138-4.816-5.633-3.692-8.815-5.991-14.283-9.594C51.3,77.526,55.4,75.237,59,71.5c.942-.979,17.318-15.874,17.635-17.225a1.307,1.307,0,0,0-.3-1.132,1.475,1.475,0,0,0-1.325-.128q-.847.192-27,17.843-3.831,2.631-6.94,2.564c-2.285-.049-6.681-1.292-9.949-2.354-4.008-1.3-7.193-1.992-6.916-4.2Q24.426,65.132,28.97,63.324Z" fill="#d8aef4"/>
</svg>
