<svg xmlns="http://www.w3.org/2000/svg" width="25" height="25" viewBox="0 0 25 25">
  <g id="tiktok-color-logo" transform="translate(-409 -378)">
    <path id="Trazado_147" data-name="Trazado 147" d="M24.99,12.586A12.5,12.5,0,1,1,12.576,0,12.5,12.5,0,0,1,24.99,12.586Z" transform="translate(409.01 378)"/>
    <g id="页面1" transform="translate(414.021 384)">
      <g id="编组-2" transform="translate(0.979)">
        <path id="路径" d="M4.884,11.6V11.05A4.073,4.073,0,0,0,4.3,11a4.3,4.3,0,0,0-2.462,7.821A4.291,4.291,0,0,1,4.884,11.6Z" transform="translate(0 -6.021)" fill="#25f4ee"/>
        <path id="路径-2" data-name="路径" d="M9.1,11.836a1.964,1.964,0,0,0,1.96-1.878V.593h1.711A3.207,3.207,0,0,1,12.726,0h-2.34V9.356a1.964,1.964,0,0,1-1.96,1.892,1.991,1.991,0,0,1-.905-.226A1.964,1.964,0,0,0,9.1,11.836Z" transform="translate(-4.117)" fill="#25f4ee"/>
        <path id="路径-3" data-name="路径" d="M24.051,7.055V6.534A3.2,3.2,0,0,1,22.281,6a3.245,3.245,0,0,0,1.77,1.055Z" transform="translate(-12.196 -3.284)" fill="#25f4ee"/>
        <path id="路径-4" data-name="路径" d="M20.557,3.427a3.223,3.223,0,0,1-.8-2.127h-.625a3.241,3.241,0,0,0,1.426,2.127Z" transform="translate(-10.472 -0.712)" fill="#fe2c55"/>
        <path id="路径-5" data-name="路径" d="M7.147,14.063a1.964,1.964,0,0,0-.905,3.7,1.96,1.96,0,0,1,1.589-3.11,2.065,2.065,0,0,1,.579.091V12.365a4.11,4.11,0,0,0-.579-.045h-.1v1.811A2.015,2.015,0,0,0,7.147,14.063Z" transform="translate(-2.842 -6.744)" fill="#fe2c55"/>
        <path id="路径-6" data-name="路径" d="M14.083,8.33v1.811a5.554,5.554,0,0,1-3.245-1.055v4.757a4.3,4.3,0,0,1-4.3,4.3,4.259,4.259,0,0,1-2.462-.779,4.3,4.3,0,0,0,7.441-2.924V9.692a5.563,5.563,0,0,0,3.25,1.041V8.4A3.317,3.317,0,0,1,14.083,8.33Z" transform="translate(-2.228 -4.56)" fill="#fe2c55"/>
        <path id="路径-7" data-name="路径" d="M9.409,9.995V5.238a5.554,5.554,0,0,0,3.25,1.041V4.468a3.245,3.245,0,0,1-1.774-1.041A3.241,3.241,0,0,1,9.459,1.3H7.748v9.369a1.964,1.964,0,0,1-3.553,1.073A1.964,1.964,0,0,1,5.1,8.04a2.014,2.014,0,0,1,.579.091V6.32a4.291,4.291,0,0,0-3.042,7.242A4.259,4.259,0,0,0,5.1,14.29,4.3,4.3,0,0,0,9.409,9.995Z" transform="translate(-0.8 -0.712)" fill="#fff"/>
      </g>
    </g>
  </g>
</svg>
