<svg id="whatsapp2" xmlns="http://www.w3.org/2000/svg" width="45.644" height="46" viewBox="0 0 45.644 46">
  <path id="whatsapp2-2" data-name="whatsapp2" d="M457.27-328.782a13.555,13.555,0,0,1,2.9,1.307,12.81,12.81,0,0,1,2.66,1.575,1.28,1.28,0,0,1,.06.446,6.289,6.289,0,0,1-.505,2.258,3.988,3.988,0,0,1-2.11,1.946,7.03,7.03,0,0,1-3.031.787q-1.694,0-5.646-1.842a16.952,16.952,0,0,1-5.052-3.507,39.222,39.222,0,0,1-4.4-5.5,10.388,10.388,0,0,1-2.11-5.765v-.238a6.57,6.57,0,0,1,2.2-4.7,2.242,2.242,0,0,1,1.545-.654,4.742,4.742,0,0,1,.535.045,4.8,4.8,0,0,0,.565.045,1.224,1.224,0,0,1,.788.193,2.129,2.129,0,0,1,.461.817q.236.593.981,2.615a17.07,17.07,0,0,1,.743,2.229,3.012,3.012,0,0,1-1.025,1.709q-1.025,1.083-1.025,1.382a.854.854,0,0,0,.149.446,13.411,13.411,0,0,0,3.031,4.071,18.979,18.979,0,0,0,4.487,3,1.307,1.307,0,0,0,.654.208q.446,0,1.6-1.441T457.27-328.782Zm-6.032,15.749a18.177,18.177,0,0,0,7.236-1.486,18.791,18.791,0,0,0,5.958-3.982,18.791,18.791,0,0,0,3.982-5.958,18.177,18.177,0,0,0,1.486-7.236,18.177,18.177,0,0,0-1.486-7.236,18.79,18.79,0,0,0-3.982-5.958,18.789,18.789,0,0,0-5.958-3.982,18.177,18.177,0,0,0-7.236-1.486A18.177,18.177,0,0,0,444-348.87a18.789,18.789,0,0,0-5.958,3.982,18.791,18.791,0,0,0-3.982,5.958,18.177,18.177,0,0,0-1.486,7.236,18.156,18.156,0,0,0,3.566,10.935l-2.348,6.924,7.191-2.288A18.275,18.275,0,0,0,451.238-313.033Zm0-41.067a21.771,21.771,0,0,1,8.692,1.783,22.637,22.637,0,0,1,7.147,4.784,22.635,22.635,0,0,1,4.784,7.147,21.772,21.772,0,0,1,1.783,8.692A21.773,21.773,0,0,1,471.861-323a22.635,22.635,0,0,1-4.784,7.147,22.636,22.636,0,0,1-7.147,4.784,21.771,21.771,0,0,1-8.692,1.783,22.05,22.05,0,0,1-10.846-2.793L428-308.1l4.041-12.035a21.87,21.87,0,0,1-3.209-11.56,21.771,21.771,0,0,1,1.783-8.692,22.635,22.635,0,0,1,4.784-7.147,22.636,22.636,0,0,1,7.147-4.784A21.771,21.771,0,0,1,451.238-354.1Z" transform="translate(-428 354.1)" fill="#a652c6"/>
</svg>
