<svg xmlns="http://www.w3.org/2000/svg" width="28" height="21.59" viewBox="0 0 28 21.59">
  <g id="youtube-color-logo" transform="translate(-328 -389.077)">
    <path id="Trazado_65" data-name="Trazado 65" d="M35.411,37.378a3.729,3.729,0,0,0-2.482-2.734C30.75,34,22,34,22,34s-8.75,0-10.945.644a3.7,3.7,0,0,0-2.482,2.734A44.975,44.975,0,0,0,8,44.795a43.782,43.782,0,0,0,.589,7.417,3.729,3.729,0,0,0,2.482,2.734c2.18.644,10.93.644,10.93.644s8.75,0,10.945-.644a3.7,3.7,0,0,0,2.482-2.734A44.976,44.976,0,0,0,36,44.795,43.782,43.782,0,0,0,35.411,37.378Z" transform="translate(320 355.077)" fill="red"/>
    <path id="Trazado_66" data-name="Trazado 66" d="M78,78.411V69.8l7.559,4.305Z" transform="translate(261.049 325.766)" fill="#fff"/>
  </g>
</svg>
